<svg width="35" height="36" viewBox="0 0 35 36" fill="none" xmlns="http://www.w3.org/2000/svg">
<path fill-rule="evenodd" clip-rule="evenodd" d="M17.2072 1.5195C8.59874 1.5195 1.55377 8.7228 1.55377 17.693C1.55377 26.6625 8.59937 33.8652 17.2072 33.8652C25.8143 33.8652 32.8593 26.6626 32.8593 17.693C32.8593 8.72278 25.8136 1.5195 17.2072 1.5195ZM0 17.693C0 7.95978 7.66474 0 17.2072 0C26.7476 0 34.413 7.9598 34.413 17.693C34.413 27.4256 26.7483 35.3847 17.2072 35.3847C7.66553 35.3847 0 27.4257 0 17.693Z" fill="#CF4037"/>
<path fill-rule="evenodd" clip-rule="evenodd" d="M22.1676 13.9803C21.4106 8.73283 16.9872 6.14176 14.2241 4.58962C11.6598 3.14998 9.36395 2.49579 9.30856 2.66454C12.2251 5.00977 14.0977 8.66339 14.0977 12.7684C14.0977 19.4999 9.05859 25.0189 2.65674 25.5342L3.06152 26.1592C11.2572 24.8828 33.1896 20.8111 33.1896 20.8111L33.2478 20.3326L19.9414 19.877C21.4099 18.3249 22.4155 15.69 22.1676 13.9803V13.9803Z" fill="#CF4037"/>
</svg>
