<svg width="70" height="66" viewBox="0 0 70 66" fill="none" xmlns="http://www.w3.org/2000/svg">
<rect width="70" height="65.387" rx="16" fill="#4DABFF"/>
<path d="M45.9051 23.7646C45.59 22.9042 44.7074 22.2917 43.6673 22.2917H39.7275V20.8333C39.7275 20.0312 39.0183 19.375 38.1516 19.375H31.8479C30.9811 19.375 30.272 20.0312 30.272 20.8333V22.2917H26.3321C25.292 22.2917 24.4253 22.9042 24.0943 23.7646L20.9898 32.0333C20.8794 32.3396 20.8164 32.6604 20.8164 32.9958V43.4375C20.8164 44.6479 21.8723 45.625 23.1803 45.625C24.4883 45.625 25.5442 44.6479 25.5442 43.4375V42.7083H44.4553V43.4375C44.4553 44.6333 45.5112 45.625 46.8192 45.625C48.1114 45.625 49.1831 44.6479 49.1831 43.4375V32.9958C49.1831 32.675 49.12 32.3396 49.0097 32.0333L45.9051 23.7646ZM26.3321 38.3333C25.0241 38.3333 23.9683 37.3563 23.9683 36.1458C23.9683 34.9354 25.0241 33.9583 26.3321 33.9583C27.6402 33.9583 28.696 34.9354 28.696 36.1458C28.696 37.3563 27.6402 38.3333 26.3321 38.3333ZM43.6673 38.3333C42.3593 38.3333 41.3034 37.3563 41.3034 36.1458C41.3034 34.9354 42.3593 33.9583 43.6673 33.9583C44.9753 33.9583 46.0312 34.9354 46.0312 36.1458C46.0312 37.3563 44.9753 38.3333 43.6673 38.3333ZM23.9683 31.0417L26.3321 24.4792H43.6673L46.0312 31.0417H23.9683Z" fill="white"/>
</svg>
